<svg xmlns="http://www.w3.org/2000/svg" width="2560" height="1440" viewBox="0 0 2560 1440" preserveAspectRatio="xMidYMid slice">
  <defs>
    <radialGradient id="sky" cx="52%" cy="34%" r="74%">
      <stop offset="0" stop-color="#233b82"/>
      <stop offset="0.35" stop-color="#101f4d"/>
      <stop offset="0.72" stop-color="#071326"/>
      <stop offset="1" stop-color="#030816"/>
    </radialGradient>
    <radialGradient id="nebulaA" cx="50%" cy="50%" r="50%">
      <stop offset="0" stop-color="#6dd3ff" stop-opacity="0.9"/>
      <stop offset="0.45" stop-color="#7c3aed" stop-opacity="0.28"/>
      <stop offset="1" stop-color="#000" stop-opacity="0"/>
    </radialGradient>
    <radialGradient id="nebulaB" cx="50%" cy="50%" r="50%">
      <stop offset="0" stop-color="#f8d66d" stop-opacity="0.72"/>
      <stop offset="0.38" stop-color="#fb7185" stop-opacity="0.22"/>
      <stop offset="1" stop-color="#000" stop-opacity="0"/>
    </radialGradient>
    <filter id="blur" x="-20%" y="-20%" width="140%" height="140%">
      <feGaussianBlur stdDeviation="70"/>
    </filter>
    <pattern id="stars" width="220" height="220" patternUnits="userSpaceOnUse">
      <circle cx="24" cy="42" r="1.8" fill="#fff" opacity="0.9"/>
      <circle cx="82" cy="18" r="1.2" fill="#c7f9ff" opacity="0.75"/>
      <circle cx="146" cy="70" r="1.5" fill="#fff6c7" opacity="0.8"/>
      <circle cx="198" cy="34" r="1.1" fill="#fff" opacity="0.65"/>
      <circle cx="44" cy="168" r="1.1" fill="#fff" opacity="0.75"/>
      <circle cx="124" cy="150" r="2.1" fill="#dbf5ff" opacity="0.8"/>
      <circle cx="198" cy="190" r="1.3" fill="#fff" opacity="0.68"/>
    </pattern>
    <linearGradient id="building" x1="0" y1="0" x2="0" y2="1">
      <stop offset="0" stop-color="#142247" stop-opacity="0.92"/>
      <stop offset="1" stop-color="#050a19" stop-opacity="0.98"/>
    </linearGradient>
  </defs>

  <rect width="2560" height="1440" fill="url(#sky)"/>
  <ellipse cx="1180" cy="470" rx="980" ry="260" fill="url(#nebulaA)" filter="url(#blur)" transform="rotate(-9 1180 470)"/>
  <ellipse cx="1760" cy="520" rx="540" ry="210" fill="url(#nebulaB)" filter="url(#blur)" transform="rotate(16 1760 520)"/>
  <rect width="2560" height="1440" fill="url(#stars)" opacity="0.88"/>
  <g opacity="0.55">
    <circle cx="258" cy="204" r="3.5" fill="#fff"/>
    <circle cx="752" cy="238" r="3" fill="#7dd3fc"/>
    <circle cx="1340" cy="198" r="3.8" fill="#f8d66d"/>
    <circle cx="1905" cy="306" r="3.2" fill="#fff"/>
    <circle cx="2204" cy="176" r="3.5" fill="#fb7185"/>
    <circle cx="398" cy="664" r="2.8" fill="#fff"/>
    <circle cx="1016" cy="740" r="3.4" fill="#c4b5fd"/>
    <circle cx="1560" cy="680" r="2.6" fill="#fff"/>
    <circle cx="2268" cy="740" r="3.6" fill="#f8d66d"/>
  </g>
  <g opacity="0.42">
    <path d="M0 1110 C260 1032 460 1084 690 1010 C920 936 1120 1005 1348 930 C1608 846 1856 920 2080 850 C2298 782 2440 820 2560 778 L2560 1440 L0 1440 Z" fill="#071226"/>
    <path d="M0 1190 C310 1104 520 1164 820 1085 C1128 1004 1392 1128 1660 1018 C1960 895 2224 1028 2560 930 L2560 1440 L0 1440 Z" fill="#050a18"/>
  </g>
  <g transform="translate(236 914)" opacity="0.82">
    <rect x="0" y="150" width="212" height="342" fill="url(#building)" rx="6"/>
    <rect x="236" y="62" width="260" height="430" fill="url(#building)" rx="6"/>
    <rect x="524" y="110" width="220" height="382" fill="url(#building)" rx="6"/>
    <g fill="#f8d66d" opacity="0.72">
      <rect x="38" y="194" width="30" height="34" rx="3"/>
      <rect x="96" y="194" width="30" height="34" rx="3"/>
      <rect x="154" y="260" width="30" height="34" rx="3"/>
      <rect x="274" y="112" width="32" height="36" rx="3"/>
      <rect x="340" y="186" width="32" height="36" rx="3"/>
      <rect x="406" y="260" width="32" height="36" rx="3"/>
      <rect x="566" y="158" width="32" height="36" rx="3"/>
      <rect x="634" y="236" width="32" height="36" rx="3"/>
      <rect x="688" y="316" width="32" height="36" rx="3"/>
    </g>
  </g>
  <rect width="2560" height="1440" fill="#000" opacity="0.16"/>
</svg>
